<svg width="35" height="29" viewBox="0 0 35 29" fill="none" xmlns="http://www.w3.org/2000/svg">
    <path d="M11.9766 6.89844C10.5 6.02344 9.625 4.4375 9.625 2.74219V1.8125C9.625 1.10156 10.1719 0.5 10.9375 0.5C11.6484 0.5 12.25 1.10156 12.25 1.8125V2.74219C12.25 3.50781 12.6328 4.27344 13.3438 4.65625C14.8203 5.53125 15.75 7.11719 15.75 8.8125V9.6875C15.75 10.4531 15.1484 11 14.4375 11C13.6719 11 13.125 10.4531 13.125 9.6875V8.86719C13.125 8.04688 12.6875 7.33594 11.9766 6.89844ZM5.85156 6.89844C4.375 6.02344 3.5 4.4375 3.5 2.74219V1.8125C3.5 1.10156 4.04688 0.5 4.8125 0.5C5.52344 0.5 6.125 1.10156 6.125 1.8125V2.74219C6.125 3.50781 6.50781 4.27344 7.21875 4.65625C8.69531 5.53125 9.625 7.11719 9.625 8.8125V9.6875C9.625 10.4531 9.02344 11 8.3125 11C7.54688 11 7 10.4531 7 9.6875V8.86719C7 8.04688 6.5625 7.33594 5.85156 6.89844ZM32.8125 14.5C33.5234 14.5 34.125 15.1016 34.125 15.8125C34.125 16.5781 33.5234 17.125 32.8125 17.125H31.1719C30.4062 21.2812 27.8906 24.7266 24.4453 26.75C24.4453 27.7344 23.625 28.5 22.6953 28.5H12.25C11.2656 28.5 10.5 27.7344 10.5 26.75C7 24.7266 4.48438 21.2812 3.71875 17.125H2.1875C1.42188 17.125 0.875 16.5781 0.875 15.8125C0.875 15.1016 1.42188 14.5 2.1875 14.5H3.5C3.5 13.5703 4.26562 12.75 5.25 12.75H17.5547C17.9922 9.35938 20.8906 6.625 24.5 6.625C28.3281 6.625 31.5 9.79688 31.5 13.625V14.5H32.8125ZM24.5 9.25C22.3672 9.25 20.6172 10.7812 20.1797 12.75H28.7656C28.3281 10.7812 26.5781 9.25 24.5 9.25ZM23.1328 24.5078C26.4141 22.5938 28.5469 19.1484 28.8203 15.375H6.125C6.39844 19.1484 8.53125 22.5938 11.8125 24.5078L13.125 25.2734V25.875H21.8203V25.2734L23.1328 24.5078Z" fill="#F7FFF7"/>
</svg>
