<svg width="12" height="17" viewBox="0 0 12 17" fill="none" xmlns="http://www.w3.org/2000/svg">
    <path d="M1.21875 10.4688C1.34375 10.3438 1.53125 10.25 1.75 10.25C1.9375 10.25 2.125 10.3438 2.25 10.5L5.25 13.4688V0.75C5.25 0.34375 5.5625 0 6 0C6.40625 0 6.75 0.34375 6.75 0.75V13.4688L9.71875 10.5C10 10.1875 10.4688 10.1875 10.75 10.5C11.0625 10.7812 11.0625 11.25 10.75 11.5625L6.5 15.8125C6.21875 16.0938 5.75 16.0938 5.46875 15.8125L1.21875 11.5625C0.90625 11.25 0.90625 10.7812 1.21875 10.4688Z" fill="#1A191C"/>
</svg>
