<svg width="18" height="18" viewBox="0 0 18 18" fill="none"
    xmlns="http://www.w3.org/2000/svg">
    <path d="M15.625 0.25C16.6406 0.25 17.5 1.10938 17.5 2.125V15.875C17.5 16.9297 16.6406 17.75 15.625 17.75H10.2344V11.8125H12.5L12.9297 9H10.2344V7.20312C10.2344 6.42188 10.625 5.67969 11.8359 5.67969H13.0469V3.29688C13.0469 3.29688 11.9531 3.10156 10.8594 3.10156C8.67188 3.10156 7.22656 4.46875 7.22656 6.89062V9H4.76562V11.8125H7.22656V17.75H1.875C0.820312 17.75 0 16.9297 0 15.875V2.125C0 1.10938 0.820312 0.25 1.875 0.25H15.625Z" fill="#F7FFF7"/>
</svg>
