<svg width="29" height="29" viewBox="0 0 29 29" fill="none" xmlns="http://www.w3.org/2000/svg">
    <path d="M29 13.625C29 14.3359 28.8359 14.9922 28.6719 15.5938C28.8359 15.9766 29 16.3594 28.9453 16.7969C28.6172 20.7891 26.1562 24.2344 22.6016 25.875C22.4922 27.3516 21.2344 28.5 19.7578 28.5H10.2422C8.76562 28.5 7.50781 27.3516 7.34375 25.875C3.78906 24.2891 1.32812 20.7891 1 16.7969C0.945312 16.25 1.10938 15.6484 1.54688 15.2109C1.82031 14.8828 2.20312 14.7188 2.58594 14.6094C2.42188 13.625 2.03906 12.5859 1.54688 11.7109C1.21875 11.0547 0.945312 9.85156 1 9.03125C1.10938 6.46094 3.07812 4.38281 5.59375 4.10938C5.97656 4.05469 6.63281 3.94531 7.5625 4.21875C8.54688 1.97656 10.7891 0.5 13.1953 0.5C15.6562 0.5 17.8984 1.97656 18.8281 4.21875C19.5391 4.05469 20.1406 4 20.8516 4.10938C22.7656 4.32812 24.4062 5.58594 25.1172 7.44531C27.4141 8.59375 29 10.9453 29 13.625ZM12.375 6.625V14.5H14.125V6.625C14.125 6.1875 13.6875 5.75 13.25 5.75C12.7578 5.75 12.375 6.1875 12.375 6.625ZM4.71875 8.64844C4.39062 8.97656 4.39062 9.57812 4.71875 9.90625L9.36719 14.5H11.8281L5.97656 8.64844C5.64844 8.32031 5.04688 8.32031 4.71875 8.64844ZM20.9062 23.7422C23.75 22.7031 25.8281 20.1875 26.2656 17.1797H3.67969C4.11719 20.1875 6.19531 22.8125 9.09375 23.7969L9.96875 24.0703V25.6016C9.96875 25.7656 10.0781 25.875 10.2422 25.875H19.7578C19.8672 25.875 20.0312 25.7656 20.0312 25.6016V24.0703L20.9062 23.7422ZM26.2109 14.5547C26.2656 14.2266 26.375 13.9531 26.375 13.6797C26.375 11.4375 24.5156 9.35938 21.9453 9.35938C19.5391 9.35938 17.5703 11.2734 17.5703 13.6797C17.5703 13.9531 17.6797 14.2266 17.7344 14.5547H26.2109Z" fill="#F7FFF7"/>
</svg>
