<svg width="19" height="18" viewBox="0 0 19 18" fill="none"
    xmlns="http://www.w3.org/2000/svg">
    <path d="M9.75 4.50781C12.2109 4.50781 14.2422 6.53906 14.2422 9C14.2422 11.5 12.2109 13.4922 9.75 13.4922C7.25 13.4922 5.25781 11.5 5.25781 9C5.25781 6.53906 7.25 4.50781 9.75 4.50781ZM9.75 11.9297C11.3516 11.9297 12.6406 10.6406 12.6406 9C12.6406 7.39844 11.3516 6.10938 9.75 6.10938C8.10938 6.10938 6.82031 7.39844 6.82031 9C6.82031 10.6406 8.14844 11.9297 9.75 11.9297ZM15.4531 4.35156C15.4531 4.9375 14.9844 5.40625 14.3984 5.40625C13.8125 5.40625 13.3438 4.9375 13.3438 4.35156C13.3438 3.76562 13.8125 3.29688 14.3984 3.29688C14.9844 3.29688 15.4531 3.76562 15.4531 4.35156ZM18.4219 5.40625C18.5 6.85156 18.5 11.1875 18.4219 12.6328C18.3438 14.0391 18.0312 15.25 17.0156 16.3047C16 17.3203 14.75 17.6328 13.3438 17.7109C11.8984 17.7891 7.5625 17.7891 6.11719 17.7109C4.71094 17.6328 3.5 17.3203 2.44531 16.3047C1.42969 15.25 1.11719 14.0391 1.03906 12.6328C0.960938 11.1875 0.960938 6.85156 1.03906 5.40625C1.11719 4 1.42969 2.75 2.44531 1.73438C3.5 0.71875 4.71094 0.40625 6.11719 0.328125C7.5625 0.25 11.8984 0.25 13.3438 0.328125C14.75 0.40625 16 0.71875 17.0156 1.73438C18.0312 2.75 18.3438 4 18.4219 5.40625ZM16.5469 14.1562C17.0156 13.0234 16.8984 10.2891 16.8984 9C16.8984 7.75 17.0156 5.01562 16.5469 3.84375C16.2344 3.10156 15.6484 2.47656 14.9062 2.20312C13.7344 1.73438 11 1.85156 9.75 1.85156C8.46094 1.85156 5.72656 1.73438 4.59375 2.20312C3.8125 2.51562 3.22656 3.10156 2.91406 3.84375C2.44531 5.01562 2.5625 7.75 2.5625 9C2.5625 10.2891 2.44531 13.0234 2.91406 14.1562C3.22656 14.9375 3.8125 15.5234 4.59375 15.8359C5.72656 16.3047 8.46094 16.1875 9.75 16.1875C11 16.1875 13.7344 16.3047 14.9062 15.8359C15.6484 15.5234 16.2734 14.9375 16.5469 14.1562Z" fill="#F7FFF7"/>
</svg>
