<svg width="21" height="20" viewBox="0 0 21 20" fill="none" xmlns="http://www.w3.org/2000/svg">
    <path d="M12.375 1.32812L20.625 9.20312C20.8594 9.4375 21 9.71875 21 10.0469C21 10.3281 20.8594 10.6094 20.625 10.8438L12.375 18.7188C11.9531 19.1406 11.2031 19.1406 10.7812 18.6719C10.3594 18.25 10.3594 17.5 10.8281 17.0781L17.0625 11.1719H1.125C0.46875 11.1719 0 10.6562 0 10.0469C0 9.39062 0.46875 8.92188 1.125 8.92188H17.0625L10.8281 2.96875C10.3594 2.54688 10.3594 1.79688 10.7812 1.375C11.2031 0.90625 11.9062 0.90625 12.375 1.32812Z" fill="#F7FFF7"/>
</svg>
