<svg width="35" height="29" viewBox="0 0 35 29" fill="none"xmlns="http://www.w3.org/2000/svg">
    <path d="M5.6875 0.5C6.39844 0.5 7 1.10156 7 1.8125V4H9.625V1.8125C9.625 1.10156 10.1719 0.5 10.9375 0.5C11.6484 0.5 12.25 1.10156 12.25 1.8125V6.625H3.9375C3.17188 6.625 2.625 7.22656 2.625 7.9375V24.5625C2.625 25.3281 3.17188 25.875 3.9375 25.875H12.25C12.25 26.8594 12.5234 27.7891 13.0703 28.5H3.9375C1.75 28.5 0 26.75 0 24.5625V7.9375C0 5.80469 1.75 4 3.9375 4H4.375V1.8125C4.375 1.10156 4.92188 0.5 5.6875 0.5ZM19.25 17.125C19.25 16.6875 19.6328 16.25 20.125 16.25H21.875C22.3125 16.25 22.75 16.6875 22.75 17.125V18.875C22.75 19.3672 22.3125 19.75 21.875 19.75H20.125C19.6328 19.75 19.25 19.3672 19.25 18.875V17.125ZM21.875 5.75C22.3125 5.75 22.75 6.1875 22.75 6.625V8.375C22.75 8.86719 22.3125 9.25 21.875 9.25H20.125C19.6328 9.25 19.25 8.86719 19.25 8.375V6.625C19.25 6.1875 19.6328 5.75 20.125 5.75H21.875ZM19.25 11.875C19.25 11.4375 19.6328 11 20.125 11H21.875C22.3125 11 22.75 11.4375 22.75 11.875V13.625C22.75 14.1172 22.3125 14.5 21.875 14.5H20.125C19.6328 14.5 19.25 14.1172 19.25 13.625V11.875ZM27.125 23.25C26.6328 23.25 26.25 22.8672 26.25 22.375V20.625C26.25 20.1875 26.6328 19.75 27.125 19.75H28.875C29.3125 19.75 29.75 20.1875 29.75 20.625V22.375C29.75 22.8672 29.3125 23.25 28.875 23.25H27.125ZM26.25 15.375C26.25 14.9375 26.6328 14.5 27.125 14.5H28.875C29.3125 14.5 29.75 14.9375 29.75 15.375V17.125C29.75 17.6172 29.3125 18 28.875 18H27.125C26.6328 18 26.25 17.6172 26.25 17.125V15.375ZM28 9.25H31.5C33.4141 9.25 35 10.8359 35 12.75V25C35 26.9688 33.4141 28.5 31.5 28.5H17.5C15.5312 28.5 14 26.9688 14 25V4C14 2.08594 15.5312 0.5 17.5 0.5H24.5C26.4141 0.5 28 2.08594 28 4V9.25ZM25.375 4C25.375 3.5625 24.9375 3.125 24.5 3.125H17.5C17.0078 3.125 16.625 3.5625 16.625 4V25C16.625 25.4922 17.0078 25.875 17.5 25.875H31.5C31.9375 25.875 32.375 25.4922 32.375 25V12.75C32.375 12.3125 31.9375 11.875 31.5 11.875H25.375V4ZM6.125 18C5.63281 18 5.25 17.6172 5.25 17.125V15.375C5.25 14.9375 5.63281 14.5 6.125 14.5H7.875C8.3125 14.5 8.75 14.9375 8.75 15.375V17.125C8.75 17.6172 8.3125 18 7.875 18H6.125ZM5.25 20.625C5.25 20.1875 5.63281 19.75 6.125 19.75H7.875C8.3125 19.75 8.75 20.1875 8.75 20.625V22.375C8.75 22.8672 8.3125 23.25 7.875 23.25H6.125C5.63281 23.25 5.25 22.8672 5.25 22.375V20.625ZM6.125 12.75C5.63281 12.75 5.25 12.3672 5.25 11.875V10.125C5.25 9.6875 5.63281 9.25 6.125 9.25H7.875C8.3125 9.25 8.75 9.6875 8.75 10.125V11.875C8.75 12.3672 8.3125 12.75 7.875 12.75H6.125Z" fill="#F7FFF7"/>
</svg>
