<svg width="17" height="12" viewBox="0 0 17 12" fill="none"
    xmlns="http://www.w3.org/2000/svg">
    <path d="M10.4687 10.7812C10.3437 10.6562 10.25 10.4687 10.25 10.25C10.25 10.0625 10.3437 9.875 10.5 9.75L13.4687 6.75L0.75 6.75C0.34375 6.75 -1.99433e-07 6.4375 -2.18557e-07 6C-2.36315e-07 5.59375 0.34375 5.25 0.75 5.25L13.4687 5.25L10.5 2.28125C10.1875 2 10.1875 1.53125 10.5 1.25C10.7812 0.9375 11.25 0.9375 11.5625 1.25L15.8125 5.5C16.0937 5.78125 16.0937 6.25 15.8125 6.53125L11.5625 10.7812C11.25 11.0937 10.7813 11.0937 10.4687 10.7812Z" fill="#1A191C"/>
</svg>