<svg width="18" height="18" viewBox="0 0 18 18" fill="none" xmlns="http://www.w3.org/2000/svg">
    <path d="M15.625 0.25C16.6406 0.25 17.5 1.10938 17.5 2.125V15.875C17.5 16.9297 16.6406 17.75 15.625 17.75H1.875C0.820312 17.75 0 16.9297 0 15.875V2.125C0 1.10938 0.820312 0.25 1.875 0.25H15.625ZM13.7109 6.46094C14.1797 6.10938 14.6484 5.64062 15 5.13281C14.5312 5.32812 14.0234 5.48438 13.5156 5.52344C14.0234 5.21094 14.4531 4.74219 14.6484 4.11719C14.1406 4.42969 13.5938 4.625 13.0078 4.74219C12.5391 4.23438 11.875 3.92188 11.1328 3.92188C9.57031 3.92188 8.28125 5.36719 8.63281 7.08594C6.52344 6.96875 4.60938 5.95312 3.35938 4.39062C3.125 4.78125 3.00781 5.21094 3.00781 5.71875C3.00781 6.57812 3.4375 7.35938 4.14062 7.82812C3.71094 7.82812 3.32031 7.71094 3.00781 7.51562V7.55469C3.00781 8.80469 3.86719 9.82031 5.03906 10.0547C4.64844 10.1719 4.29688 10.1719 3.86719 10.0938C4.21875 11.1094 5.15625 11.8516 6.28906 11.8906C5.39062 12.5547 4.29688 12.9844 3.08594 12.9844C2.89062 12.9844 2.69531 12.9844 2.5 12.9453C3.63281 13.6875 4.96094 14.0781 6.40625 14.0781C11.1328 14.0781 13.7109 10.1719 13.7109 6.8125C13.7109 6.69531 13.7109 6.57812 13.7109 6.46094Z" fill="#F7FFF7"/>
</svg>
